<?xml version="1.0" encoding="utf-8"?>
<svg xmlns="http://www.w3.org/2000/svg" x="0px" y="0px" viewBox="0 0 24 24" width="24px" height="24px">
  <path d="m19,0H5C2.239,0,0,2.239,0,5v14c0,2.761,2.239,5,5,5h14c2.761,0,5-2.239,5-5V5c0-2.761-2.239-5-5-5Zm-7,20c-3.022,0-5.64-1.697-7-4.177v2.177c0,.552-.448,1-1,1h0c-.552,0-1-.448-1-1v-3c0-1.105.895-2,2-2h3c.552,0,1,.448,1,1h0c0,.552-.448,1-1,1h-1.169c1.039,1.787,2.957,3,5.169,3,2.722,0,5.02-1.823,5.751-4.312.122-.414.515-.688.947-.688h0c.653,0,1.156.622.972,1.249-.973,3.319-4.041,5.751-7.671,5.751Zm9-11c0,1.105-.895,2-2,2h-3c-.552,0-1-.448-1-1h0c0-.552.448-1,1-1h1.185c-1.037-1.791-2.97-3-5.185-3-2.722,0-5.02,1.823-5.751,4.312-.122.414-.515.688-.947.688h0c-.653,0-1.156-.622-.972-1.249.973-3.319,4.041-5.751,7.671-5.751,3.015,0,5.639,1.679,7,4.15v-2.15c0-.552.448-1,1-1h0c.552,0,1,.448,1,1v3Z"/>
</svg>
