<?xml version="1.0" encoding="utf-8"?>
<svg xmlns="http://www.w3.org/2000/svg" x="0px" y="0px" width="24px" height="24px" viewBox="0 0 24 24">
  <path d="M 16.921 3.5 C 16.921 1.57 18.508 0 20.46 0 C 22.412 0 24 1.57 24 3.5 C 24 5.43 22.412 7 20.46 7 C 18.508 7 16.921 5.43 16.921 3.5 Z" style="fill: rgb(255, 0, 0);"/>
  <path d="M 23.626 16.862 L 21.573 8.889 C 21.213 8.962 20.841 9 20.46 9 C 19.719 9 19.013 8.853 18.365 8.592 L 20.529 17 L 3.186 17 L 5.503 8.045 C 6.17 5.074 8.786 3 11.864 3 C 12.952 3 13.993 3.27 14.911 3.748 C 14.907 3.665 14.898 3.584 14.898 3.5 C 14.898 2.507 15.17 1.577 15.637 0.771 C 14.47 0.273 13.191 0 11.864 0 C 7.353 0 3.52 3.041 2.553 7.348 L 0.053 17.011 C -0.102 17.713 0.088 18.481 0.561 19.064 C 1.045 19.66 1.763 20.001 2.534 20.001 L 6.723 20.001 C 7.293 22.294 9.37 24.001 11.865 24.001 C 14.36 24.001 16.437 22.294 17.006 20.001 L 21.181 20.001 C 21.979 20.001 22.713 19.641 23.194 19.015 C 23.605 18.48 23.762 17.822 23.671 17.169 C 23.667 17.068 23.652 16.965 23.626 16.863 L 23.626 16.862 Z" style="fill: rgb(255, 255, 247);"/>
</svg>