<?xml version="1.0" encoding="utf-8"?>
<svg xmlns="http://www.w3.org/2000/svg" x="0px" y="0px" width="24px" height="24px" viewBox="0 0 24 24">
  <path d="m23.395,11.231c-.571-.767-1.441-1.213-2.395-1.23v-1.5c0-3.033-2.468-5.5-5.5-5.5h-4.056c-.077,0-.155-.018-.224-.053l-3.155-1.578c-.483-.241-1.024-.369-1.565-.369h-2C2.019,1,0,3.019,0,5.5v12c0,3.033,2.468,5.5,5.5,5.5h11.558c2.447,0,4.565-1.575,5.269-3.919l1.544-5.147c.28-.935.106-1.919-.476-2.702Zm-18.528,1.789l-1.784,5.119c-.054-.204-.082-.418-.082-.638v-9.5h14.95c.033.162.05.329.05.5v1.5h-8.885c-1.913,0-3.62,1.213-4.249,3.02Zm14.587,5.199c-.32,1.066-1.282,1.782-2.396,1.782H5.61l2.089-5.994c.209-.602.778-1.006,1.416-1.006h11.882l-1.544,5.218Z" style="fill: rgb(255, 255, 247);"/>
</svg>