<?xml version="1.0" encoding="utf-8"?>
<svg xmlns="http://www.w3.org/2000/svg" x="0px" y="0px" width="24px" height="24px" viewBox="0 0 24 24">
  <path d="m19,6.281v3.399c0,.729-.591,1.32-1.32,1.32h-.774s-.003,0-.004,0c-.001,0-.002,0-.004,0h-2.617c-.695,0-1.042-.84-.551-1.331l.783-.783c-.698-.564-1.577-.886-2.513-.886-1.511,0-2.877.836-3.564,2.183-.377.738-1.279,1.031-2.019.653-.737-.377-1.03-1.28-.653-2.018,1.204-2.354,3.593-3.817,6.236-3.817,1.749,0,3.377.651,4.634,1.765l1.035-1.035c.491-.491,1.331-.143,1.331.551Zm5-.781v13c0,3.033-2.468,5.5-5.5,5.5H5.5c-3.032,0-5.5-2.467-5.5-5.5V5.5C0,2.467,2.468,0,5.5,0h13c3.032,0,5.5,2.467,5.5,5.5Zm-3,0c0-1.378-1.121-2.5-2.5-2.5H5.5c-1.379,0-2.5,1.122-2.5,2.5v13c0,1.378,1.121,2.5,2.5,2.5h13c1.379,0,2.5-1.122,2.5-2.5V5.5Zm-3.417,7.665c-.738-.377-1.641-.084-2.019.653-.688,1.346-2.054,2.183-3.564,2.183-.937,0-1.782-.328-2.47-.93l.74-.74c.491-.491.143-1.331-.551-1.331h-3.399c-.729,0-1.32.591-1.32,1.32v3.399c0,.695.84,1.042,1.331.551l1.073-1.073c1.251,1.16,2.856,1.803,4.596,1.803,2.644,0,5.032-1.463,6.236-3.817.377-.738.084-1.641-.653-2.018Z" style="fill: rgb(255, 255, 247);"/>
</svg>