<?xml version="1.0" encoding="utf-8"?>
<svg xmlns="http://www.w3.org/2000/svg" x="0px" y="0px" viewBox="0 0 24 24" width="24px" height="24px">
  <path d="M 16.4 16 C 16.4 16.552 15.906 16.999 15.3 16.999 L 13.1 16.999 L 13.1 19 C 13.1 19.77 12.185 20.251 11.45 19.866 C 11.11 19.687 10.9 19.357 10.9 19 L 10.9 16.999 L 8.7 16.999 C 7.853 16.999 7.324 16.167 7.747 15.499 C 7.943 15.19 8.307 15 8.7 15 L 10.9 15 L 10.9 13 C 10.9 12.229 11.815 11.749 12.55 12.133 C 12.89 12.312 13.1 12.642 13.1 13 L 13.1 15 L 15.3 15 C 15.906 15 16.4 15.447 16.4 16 Z M 23 10.485 L 23 19 C 22.997 21.76 20.536 23.997 17.5 24 L 6.5 24 C 3.464 23.997 1.003 21.76 1 19 L 1 5 C 1.003 2.24 3.464 0.003 6.5 0 L 11.465 0 C 13.508 -0.004 15.469 0.734 16.911 2.051 L 20.744 5.537 C 22.193 6.846 23.005 8.628 23 10.485 Z M 15.356 3.464 C 15.009 3.159 14.621 2.897 14.2 2.684 L 14.2 7.001 C 14.2 7.553 14.694 8 15.3 8 L 20.047 8 C 19.813 7.617 19.524 7.265 19.187 6.95 L 15.356 3.464 Z M 20.8 10.485 C 20.8 10.32 20.766 10.162 20.747 10 L 15.3 10 C 13.477 10 12 8.656 12 7.001 L 12 2.048 C 11.822 2.033 11.646 2 11.465 2 L 6.5 2 C 4.677 2 3.2 3.344 3.2 5 L 3.2 19 C 3.2 20.656 4.677 22 6.5 22 L 17.5 22 C 19.323 22 20.8 20.656 20.8 19 L 20.8 10.485 Z" style="fill: rgb(7, 4, 16);"/>
</svg>
