<?xml version="1.0" encoding="utf-8"?>
<svg xmlns="http://www.w3.org/2000/svg" x="0px" y="0px" viewBox="0 0 24 24" width="24px" height="24px">
  <path d="M 23.257 16.247 L 23.252 16.228 C 23.252 16.228 23.252 16.228 23.252 16.227 L 21.646 9.754 C 21.097 9.912 20.518 10.001 19.917 10.001 C 19.811 10.001 19.707 9.991 19.602 9.985 L 21.274 16.72 C 21.276 16.727 21.281 16.732 21.282 16.74 L 21.278 16.74 C 21.361 17.048 21.299 17.355 21.105 17.606 C 20.909 17.861 20.619 18.001 20.292 18.001 L 3.064 18.001 C 2.752 18.001 2.463 17.864 2.27 17.63 C 2.074 17.39 2 17.082 2.058 16.818 L 4.46 7.701 C 5.221 4.345 8.219 2.001 11.749 2.001 C 12.538 2.001 13.304 2.133 14.028 2.362 C 14.22 1.701 14.522 1.087 14.918 0.541 C 13.919 0.193 12.851 0.002 11.749 0.002 C 7.255 0 3.438 2.988 2.475 7.233 L 0.073 16.352 C -0.128 17.242 0.092 18.163 0.677 18.88 C 1.262 19.592 2.133 20 3.064 20 L 6.747 20 C 7.222 22.279 9.284 24 11.749 24 C 14.215 24 16.276 22.279 16.751 20 L 20.294 20 C 21.26 20 22.149 19.567 22.734 18.814 C 23.301 18.081 23.488 17.154 23.258 16.264 C 23.257 16.258 23.258 16.253 23.258 16.247 L 23.257 16.247 Z M 11.749 22 C 10.42 22 9.297 21.161 8.874 20 L 14.623 20 C 14.2 21.161 13.077 22 11.748 22 L 11.749 22 Z"/>
  <path d="M 19.916 8 C 22.168 8 24 6.206 24 4 C 24 1.794 22.168 0 19.916 0 C 17.664 0 15.832 1.794 15.832 4 C 15.832 6.206 17.664 8 19.916 8 Z M 19.916 2 C 21.042 2 21.958 2.897 21.958 4 C 21.958 5.103 21.042 6 19.916 6 C 18.79 6 17.874 5.103 17.874 4 C 17.874 2.897 18.79 2 19.916 2 Z" style="fill: rgb(255, 0, 0);"/>
</svg>