<?xml version="1.0" encoding="utf-8"?>
<svg version="1.1" xmlns="http://www.w3.org/2000/svg" width="512px" height="512px" xmlns:bx="https://boxy-svg.com">
  <path style="fill: rgb(1, 64, 112); stroke-width: 10px; stroke-linejoin: bevel; stroke-dashoffset: 100px; stroke: rgb(7, 4, 16);" d="M 70 20 H 442 A 50 50 0 0 1 492 70 V 415.681 A 75 75 0 0 1 417 490.681 H 95 A 75 75 0 0 1 20 415.681 V 70 A 50 50 0 0 1 70 20 Z" bx:shape="rect 20 20 472 470.681 50 50 75 75 1@8a841a04"/>
  <defs>
    <style bx:fonts="Bungee">@import url(https://fonts.googleapis.com/css2?family=Bungee%3Aital%2Cwght%400%2C400&amp;display=swap);</style>
    <bx:guide x="256" y="20" angle="90"/>
    <bx:guide x="20" y="256" angle="0"/>
    <bx:guide x="492" y="256" angle="0"/>
    <bx:guide x="256" y="492" angle="90"/>
    <bx:guide x="256" y="0" angle="90"/>
    <bx:guide x="256" y="512" angle="90"/>
    <bx:guide x="0" y="256" angle="0"/>
    <bx:guide x="512" y="256" angle="0"/>
    <bx:guide x="256" y="368.105" angle="90"/>
    <bx:guide x="256" y="256" angle="0"/>
  </defs>
  <g transform="matrix(1, 0, 0, 1, -7.193616, 3.912978)">
    <path d="M 343.458 257.551 L 131.039 189.462 C 126.292 187.942 123.626 182.737 125.117 177.9 L 159.797 65.631 C 161.29 60.794 166.399 58.076 171.146 59.594 L 383.562 127.684 C 388.309 129.204 390.978 134.41 389.484 139.249 L 354.807 251.517 C 353.315 256.354 348.205 259.071 343.458 257.551 Z" style="paint-order: stroke;" fill="#F9CC12"/>
    <path d="M 346.17 267.181 C 344.362 267.181 342.507 266.903 340.745 266.306 L 128.328 198.263 C 123.717 196.787 119.964 193.565 117.748 189.187 C 115.53 184.81 115.078 179.835 116.525 175.136 L 151.205 62.867 C 152.652 58.17 155.819 54.346 160.114 52.089 C 164.41 49.831 169.291 49.368 173.905 50.844 L 386.32 118.933 C 390.934 120.405 394.684 123.633 396.9 128.007 C 399.116 132.384 399.569 137.359 398.123 142.057 L 363.443 254.328 C 361.996 259.026 358.829 262.848 354.537 265.105 C 351.912 266.49 349.065 267.181 346.17 267.181 Z M 133.798 180.664 C 133.798 180.664 133.798 180.711 133.798 180.664 L 346.217 248.753 L 346.217 248.706 L 380.85 136.439 L 168.435 68.396 L 168.435 68.439 L 133.798 180.664 Z" style="fill: rgb(7, 4, 16);"/>
    <path d="M 403.908 333.564 L 123.355 333.564 C 113.409 333.564 105.269 325.272 105.269 315.136 L 105.269 138.925 C 105.269 128.791 113.409 120.499 123.355 120.499 L 403.908 120.499 C 413.856 120.499 421.994 128.791 421.994 138.925 L 421.994 315.183 C 421.994 325.272 413.856 333.564 403.908 333.564 Z" style="fill: rgb(249, 204, 18);"/>
    <path d="M 403.908 342.778 L 123.355 342.778 C 108.389 342.778 96.226 330.385 96.226 315.136 L 96.226 138.925 C 96.226 123.676 108.389 111.285 123.355 111.285 L 403.908 111.285 C 418.874 111.285 431.038 123.676 431.038 138.925 L 431.038 315.183 C 431.038 330.385 418.874 342.778 403.908 342.778 Z M 123.355 129.71 C 118.38 129.71 114.313 133.86 114.313 138.925 L 114.313 315.183 C 114.313 320.252 118.38 324.398 123.355 324.398 L 403.908 324.398 C 408.883 324.398 412.952 320.252 412.952 315.183 L 412.952 138.925 C 412.952 133.86 408.883 129.71 403.908 129.71 L 123.355 129.71 Z" style="fill: rgb(7, 4, 16);"/>
    <path d="M 421.994 189.74 L 325.599 189.74 C 305.205 189.74 288.522 206.739 288.522 227.516 C 288.522 248.291 305.205 265.29 325.599 265.29 L 421.994 265.29 L 421.994 189.74 Z" fill="#F9CC12" style=""/>
    <path d="M 431.038 274.503 L 325.599 274.503 C 300.186 274.503 279.478 253.405 279.478 227.516 C 279.478 201.625 300.186 180.527 325.599 180.527 L 431.038 180.527 L 431.038 274.503 Z M 325.599 198.954 C 310.134 198.954 297.565 211.761 297.565 227.516 C 297.565 243.27 310.134 256.075 325.599 256.075 L 412.952 256.075 L 412.952 198.954 L 325.599 198.954 Z" style="fill: rgb(7, 4, 16);"/>
    <path d="M 309.819 227.056 C 309.819 235.532 318.822 240.829 326.027 236.589 C 329.372 234.625 331.431 230.988 331.431 227.056 C 331.431 218.58 322.425 213.283 315.223 217.52 C 311.878 219.488 309.819 223.121 309.819 227.056 Z" style="fill: rgb(7, 4, 16);"/>
  </g>
  <path style="fill: rgb(7, 4, 16); stroke-width: 10px; stroke: rgb(7, 4, 16);" d="M 20 373.105 H 492 V 440.681 A 50 50 0 0 1 442 490.681 H 70 A 50 50 0 0 1 20 440.681 V 373.105 Z" bx:shape="rect 20 373.105 472 117.576 0 0 50 50 1@d56eeeb3"/>
  <text style="fill: rgb(255, 255, 255); font-family: Bungee; font-size: 110.567px; white-space: pre;" transform="matrix(1.18, 0, 0, 1.175761, -4.621856, -3.622841)" x="56.926" y="405.918">QR2M</text>
</svg>