<?xml version="1.0" encoding="utf-8"?>
<svg width="16px" height="16px" viewBox="0 0 16 16" id="_24x24_On_Light_Notification-Alert" data-name="24x24/On Light/Notification-Alert" xmlns="http://www.w3.org/2000/svg" style="" xmlns:bx="https://boxy-svg.com">
  <defs>
    <bx:guide x="8" y="12" angle="0"/>
    <bx:guide x="8" y="8" angle="90"/>
    <bx:export>
      <bx:file format="svg"/>
    </bx:export>
  </defs>
  <rect id="view-box" width="16" height="16" fill="none"/>
  <path id="Bell" d="M 5.795 13.765 L 5.795 13.366 L 2.805 13.366 C 2.209 13.364 1.681 13.072 1.354 12.621 C 1.133 12.318 1 11.943 1 11.537 L 1 11.228 C 0.998 10.441 1.438 9.722 2.134 9.375 C 2.442 9.217 2.65 8.908 2.682 8.561 L 2.815 7.086 C 2.816 7.086 2.816 7.086 2.816 7.086 L 2.964 5.463 C 2.962 5.463 2.961 5.463 2.958 5.463 L 2.955 5.463 L 3.037 4.587 C 3.165 3.144 3.904 1.827 5.061 0.974 C 5.064 0.975 5.064 0.976 5.066 0.977 C 5.5 0.657 5.986 0.406 6.504 0.239 C 6.503 0.239 6.503 0.237 6.501 0.236 C 9.101 -0.594 11.782 0.846 12.672 3.294 C 12.823 3.708 12.922 4.144 12.963 4.593 L 13.044 5.467 L 13.041 5.469 C 13.039 5.469 13.038 5.469 13.036 5.469 L 13.184 7.092 C 13.184 7.092 13.184 7.092 13.184 7.092 L 13.316 8.566 C 13.341 8.827 13.464 9.064 13.651 9.233 C 13.714 9.29 13.786 9.338 13.862 9.377 C 14.112 9.501 14.329 9.675 14.504 9.881 C 14.82 10.25 15.001 10.729 15 11.234 L 15 11.543 C 14.999 12.549 14.194 13.363 13.201 13.364 L 10.204 13.364 L 10.204 13.77 C 10.204 15.484 8.37 16.555 6.903 15.698 C 6.847 15.667 6.794 15.63 6.741 15.594 C 6.182 15.203 5.795 14.552 5.795 13.765 Z M 2.797 12.145 L 13.195 12.145 C 13.525 12.145 13.794 11.873 13.795 11.54 L 13.795 11.23 C 13.795 10.917 13.627 10.63 13.358 10.48 C 13.35 10.476 13.341 10.472 13.335 10.467 C 13.301 10.452 13.27 10.435 13.238 10.418 C 12.602 10.062 12.179 9.409 12.116 8.672 L 11.759 4.699 C 11.68 3.764 11.271 2.932 10.656 2.317 C 10.589 2.251 10.521 2.187 10.45 2.126 C 10.45 2.126 10.45 2.126 10.45 2.126 C 10.031 1.764 9.535 1.496 8.99 1.349 C 8.99 1.35 8.99 1.351 8.989 1.354 C 8.668 1.266 8.336 1.224 8.004 1.224 C 6.045 1.215 4.407 2.729 4.24 4.705 L 3.884 8.678 C 3.818 9.446 3.359 10.125 2.674 10.467 C 2.387 10.612 2.204 10.909 2.205 11.236 L 2.205 11.546 C 2.205 11.747 2.302 11.926 2.451 12.036 C 2.548 12.104 2.668 12.145 2.797 12.145 Z M 7.496 14.641 C 8.161 15.03 8.996 14.543 8.996 13.765 L 8.996 13.366 L 7.004 13.366 L 7.004 13.77 C 7.004 14.109 7.161 14.392 7.393 14.573 C 7.426 14.597 7.461 14.62 7.496 14.641 Z" style=""/>
</svg>