<?xml version="1.0" encoding="utf-8"?>
<svg width="16px" height="16px" viewBox="0 0 16 16" id="_24x24_On_Light_Notification-Alert" data-name="24x24/On Light/Notification-Alert" xmlns="http://www.w3.org/2000/svg" style="" xmlns:bx="https://boxy-svg.com">
  <defs>
    <bx:guide x="8" y="8" angle="0"/>
    <bx:guide x="8" y="8" angle="90"/>
    <bx:guide x="12" y="4.007" angle="90"/>
  </defs>
  <rect id="view-box" width="16" height="16" fill="none"/>
  <path id="Dot" data-name="Shape" d="M 11.733 6.69 C 9.667 6.69 8.376 4.329 9.409 2.439 C 10.442 0.55 13.025 0.55 14.057 2.439 C 14.294 2.871 14.418 3.359 14.418 3.857 C 14.418 5.423 13.216 6.69 11.733 6.69 Z" style="fill: rgb(255, 0, 0);"/>
  <path id="Bell1" d="M 5.602 13.769 L 5.602 13.364 L 2.725 13.364 C 1.773 13.363 1.001 12.548 1 11.543 L 1 11.233 C 0.996 10.447 1.417 9.728 2.085 9.379 C 2.382 9.223 2.582 8.914 2.611 8.564 L 2.952 4.589 C 3.229 1.385 6.237 -0.731 9.142 0.235 C 8.933 0.581 8.768 0.954 8.655 1.349 C 8.347 1.261 8.029 1.218 7.71 1.218 C 5.832 1.21 4.261 2.725 4.101 4.701 L 3.761 8.675 C 3.697 9.443 3.257 10.122 2.601 10.465 C 2.324 10.61 2.149 10.907 2.151 11.234 L 2.151 11.544 C 2.151 11.879 2.408 12.148 2.725 12.15 L 12.694 12.15 C 13.012 12.148 13.27 11.878 13.27 11.543 L 13.27 11.233 C 13.271 10.907 13.097 10.61 12.821 10.465 C 12.164 10.122 11.725 9.444 11.659 8.675 L 11.576 7.532 C 11.956 7.65 12.315 7.522 12.711 7.524 L 12.804 8.563 C 12.835 8.913 13.034 9.219 13.33 9.377 C 13.998 9.727 14.419 10.446 14.418 11.232 L 14.418 11.542 C 14.416 12.547 13.645 13.362 12.693 13.363 L 9.819 13.363 L 9.819 13.769 C 9.819 15.484 8.062 16.555 6.655 15.698 C 6.003 15.299 5.602 14.564 5.602 13.769 Z M 6.752 13.769 C 6.752 14.548 7.55 15.035 8.19 14.645 C 8.486 14.465 8.668 14.131 8.668 13.769 L 8.668 13.364 L 6.752 13.364 L 6.752 13.769 Z" fill="#141124"/>
</svg>