<?xml version="1.0" encoding="utf-8"?>
<svg xmlns="http://www.w3.org/2000/svg" x="0px" y="0px" viewBox="0 0 24 24" width="24px" height="24px">
  <path d="M 11.997 0 C 2.767 0 -3.003 10.001 1.613 18 C 6.228 26 17.766 26 22.382 18 C 23.434 16.176 23.988 14.106 23.988 12 C 23.981 5.376 18.616 0.008 11.997 0 Z M 11.997 22.001 C 4.305 22.001 -0.504 13.667 3.342 7.001 C 7.189 0.333 16.806 0.333 20.652 7.001 C 21.529 8.52 21.99 10.245 21.99 12 C 21.984 17.52 17.513 21.995 11.997 22.001 Z" style="fill: rgb(255, 255, 247);"/>
  <path d="M 11.997 10.001 L 10.997 10.001 C 10.228 10.001 9.747 10.833 10.132 11.501 C 10.311 11.81 10.641 12 10.997 12 L 11.997 12 L 11.997 18 C 11.997 18.77 12.83 19.251 13.496 18.866 C 13.805 18.687 13.995 18.357 13.995 18 L 13.995 12 C 13.995 10.895 13.1 10.001 11.997 10.001 Z" style="fill: rgb(255, 255, 247);"/>
  <circle cx="8" cy="4.333" r="1" style="fill: rgb(255, 255, 247);" transform="matrix(1.498911, 0, 0, 1.500023, 0.0058, 0)"/>
</svg>