<?xml version="1.0" encoding="utf-8"?>
<svg xmlns="http://www.w3.org/2000/svg" x="0px" y="0px" viewBox="0 0 24 24" width="24px" height="24px">
  <path d="M 23.886 16.2 L 21.158 6.829 C 19.148 -0.086 10.039 -2.335 4.76 2.782 C 3.474 4.028 2.582 5.594 2.185 7.3 L 0.076 16.35 C -0.361 18.223 1.135 20 3.148 20 L 6.932 20 C 7.736 23.772 12.522 25.3 15.548 22.751 C 16.402 22.031 16.987 21.065 17.214 20 L 20.855 20 C 22.934 19.999 24.441 18.11 23.887 16.2 L 23.886 16.2 Z M 12.073 22 C 10.744 21.995 9.561 21.194 9.118 20 L 15.027 20 C 14.584 21.194 13.402 21.995 12.073 22 Z M 21.689 17.605 C 21.49 17.856 21.179 18.002 20.849 18 L 3.148 18 C 2.476 18 1.978 17.407 2.124 16.783 L 4.233 7.733 C 5.517 2.232 12.567 0.117 16.924 3.927 C 17.982 4.853 18.747 6.042 19.132 7.361 L 21.86 16.732 C 21.95 17.032 21.887 17.356 21.689 17.605 Z" style="fill: rgb(255, 255, 247);"/>
</svg>