<?xml version="1.0" encoding="utf-8"?>
<svg xmlns="http://www.w3.org/2000/svg" x="0px" y="0px" viewBox="0 0 24 24" width="24px" height="24px">
  <path d="M 23.492 11.928 C 23.004 11.215 22.257 10.805 21.441 10.805 L 20.999 10.805 L 20.999 8.636 C 20.999 5.63 18.756 3.182 15.999 3.182 L 10.944 3.182 C 10.79 3.182 10.634 3.142 10.497 3.067 L 7.341 1.346 C 6.927 1.119 6.464 1.001 6 1.001 L 4.001 1.001 C 1.794 0.999 0 2.957 0 5.364 L 0 19.546 C 0 22.555 2.243 25.001 5 25.001 L 17.558 25.001 C 19.784 25.001 21.707 23.439 22.359 21.067 L 23.891 14.393 C 24.125 13.541 23.979 12.643 23.493 11.928 L 23.492 11.928 Z M 2 19.546 L 2 5.364 C 2 4.16 2.897 3.182 4.001 3.182 L 6 3.182 C 6.153 3.182 6.309 3.223 6.447 3.296 L 9.602 5.018 C 10.016 5.244 10.479 5.362 10.944 5.362 L 15.999 5.362 C 17.654 5.362 18.999 6.831 18.999 8.635 L 18.999 10.803 L 8.615 10.803 C 6.915 10.803 5.397 11.981 4.826 13.771 L 2.636 21.559 C 2.238 21.003 2 20.304 2 19.544 L 2 19.546 Z M 21.963 13.815 L 20.43 20.487 C 20.048 21.883 18.893 22.819 17.558 22.819 L 5 22.819 C 4.791 22.819 4.589 22.796 4.392 22.752 L 6.726 14.45 C 7.005 13.574 7.766 12.986 8.616 12.986 L 21.443 12.986 C 21.684 12.986 21.825 13.14 21.888 13.231 C 21.95 13.322 22.044 13.514 21.963 13.815 Z" style="fill: rgb(255, 255, 247);"/>
</svg>