<?xml version="1.0" encoding="utf-8"?>
<svg version="1.1" xmlns="http://www.w3.org/2000/svg" width="512px" height="512px">
  <path style="fill: rgb(1, 64, 112); stroke-width: 10px; stroke-linejoin: bevel; stroke-dashoffset: 100px; stroke: rgb(7, 4, 16);" d="M 70 20 H 442 A 50 50 0 0 1 492 70 V 415.681 A 75 75 0 0 1 417 490.681 H 95 A 75 75 0 0 1 20 415.681 V 70 A 50 50 0 0 1 70 20 Z"/>
  <g transform="matrix(1, 0, 0, 1, -7.193616, 3.912978)">
    <path d="M 343.458 257.551 L 131.039 189.462 C 126.292 187.942 123.626 182.737 125.117 177.9 L 159.797 65.631 C 161.29 60.794 166.399 58.076 171.146 59.594 L 383.562 127.684 C 388.309 129.204 390.978 134.41 389.484 139.249 L 354.807 251.517 C 353.315 256.354 348.205 259.071 343.458 257.551 Z" style="paint-order: stroke;" fill="#F9CC12"/>
    <path d="M 346.17 267.181 C 344.362 267.181 342.507 266.903 340.745 266.306 L 128.328 198.263 C 123.717 196.787 119.964 193.565 117.748 189.187 C 115.53 184.81 115.078 179.835 116.525 175.136 L 151.205 62.867 C 152.652 58.17 155.819 54.346 160.114 52.089 C 164.41 49.831 169.291 49.368 173.905 50.844 L 386.32 118.933 C 390.934 120.405 394.684 123.633 396.9 128.007 C 399.116 132.384 399.569 137.359 398.123 142.057 L 363.443 254.328 C 361.996 259.026 358.829 262.848 354.537 265.105 C 351.912 266.49 349.065 267.181 346.17 267.181 Z M 133.798 180.664 C 133.798 180.664 133.798 180.711 133.798 180.664 L 346.217 248.753 L 346.217 248.706 L 380.85 136.439 L 168.435 68.396 L 168.435 68.439 L 133.798 180.664 Z" style="fill: rgb(7, 4, 16);"/>
    <path d="M 403.908 333.564 L 123.355 333.564 C 113.409 333.564 105.269 325.272 105.269 315.136 L 105.269 138.925 C 105.269 128.791 113.409 120.499 123.355 120.499 L 403.908 120.499 C 413.856 120.499 421.994 128.791 421.994 138.925 L 421.994 315.183 C 421.994 325.272 413.856 333.564 403.908 333.564 Z" style="fill: rgb(249, 204, 18);"/>
    <path d="M 403.908 342.778 L 123.355 342.778 C 108.389 342.778 96.226 330.385 96.226 315.136 L 96.226 138.925 C 96.226 123.676 108.389 111.285 123.355 111.285 L 403.908 111.285 C 418.874 111.285 431.038 123.676 431.038 138.925 L 431.038 315.183 C 431.038 330.385 418.874 342.778 403.908 342.778 Z M 123.355 129.71 C 118.38 129.71 114.313 133.86 114.313 138.925 L 114.313 315.183 C 114.313 320.252 118.38 324.398 123.355 324.398 L 403.908 324.398 C 408.883 324.398 412.952 320.252 412.952 315.183 L 412.952 138.925 C 412.952 133.86 408.883 129.71 403.908 129.71 L 123.355 129.71 Z" style="fill: rgb(7, 4, 16);"/>
    <path d="M 421.994 189.74 L 325.599 189.74 C 305.205 189.74 288.522 206.739 288.522 227.516 C 288.522 248.291 305.205 265.29 325.599 265.29 L 421.994 265.29 L 421.994 189.74 Z" fill="#F9CC12" style=""/>
    <path d="M 431.038 274.503 L 325.599 274.503 C 300.186 274.503 279.478 253.405 279.478 227.516 C 279.478 201.625 300.186 180.527 325.599 180.527 L 431.038 180.527 L 431.038 274.503 Z M 325.599 198.954 C 310.134 198.954 297.565 211.761 297.565 227.516 C 297.565 243.27 310.134 256.075 325.599 256.075 L 412.952 256.075 L 412.952 198.954 L 325.599 198.954 Z" style="fill: rgb(7, 4, 16);"/>
    <path d="M 309.819 227.056 C 309.819 235.532 318.822 240.829 326.027 236.589 C 329.372 234.625 331.431 230.988 331.431 227.056 C 331.431 218.58 322.425 213.283 315.223 217.52 C 311.878 219.488 309.819 223.121 309.819 227.056 Z" style="fill: rgb(7, 4, 16);"/>
  </g>
  <path style="fill: rgb(7, 4, 16); stroke-width: 10px; stroke: rgb(7, 4, 16);" d="M 20 373.105 H 492 V 440.681 A 50 50 0 0 1 442 490.681 H 70 A 50 50 0 0 1 20 440.681 V 373.105 Z"/>
  <path d="M 106.128 415.869 L 89.101 415.869 Q 87 415.869 86.06 414.929 Q 85.121 413.989 85.121 411.889 L 85.121 405.807 Q 72.295 403.928 67.817 398.123 Q 63.339 392.318 63.339 384.026 L 63.339 347.317 Q 63.339 342.231 64.832 338.085 Q 66.324 333.939 70.139 330.954 Q 73.953 327.968 80.698 326.31 Q 87.442 324.651 97.725 324.651 Q 108.008 324.651 114.697 326.31 Q 121.387 327.968 125.201 330.954 Q 129.016 333.939 130.508 338.085 Q 132.001 342.231 132.001 347.317 L 132.001 384.026 Q 132.001 388.227 131.006 391.821 Q 130.011 395.414 127.578 398.178 Q 125.146 400.942 120.889 402.933 Q 116.632 404.923 110.109 405.807 L 110.109 411.889 Q 110.109 413.989 109.169 414.929 Q 108.229 415.869 106.128 415.869 Z M 88.438 381.593 Q 88.438 383.805 90.096 385.297 Q 91.755 386.79 97.725 386.79 Q 103.696 386.79 105.354 385.297 Q 107.013 383.805 107.013 381.593 L 107.013 351.408 Q 107.013 349.308 105.354 347.815 Q 103.696 346.322 97.725 346.322 Q 91.755 346.322 90.096 347.815 Q 88.438 349.308 88.438 351.408 Z M 171.028 346.212 L 171.028 360.364 L 179.321 360.364 Q 182.196 360.364 183.191 358.872 Q 184.186 357.379 184.186 355.168 L 184.186 351.408 Q 184.186 349.197 183.191 347.704 Q 182.196 346.212 179.321 346.212 Z M 167.048 405.918 L 150.021 405.918 Q 147.92 405.918 146.98 404.978 Q 146.04 404.038 146.04 401.938 L 146.04 330.29 Q 146.04 328.189 146.98 327.25 Q 147.92 326.31 150.021 326.31 L 186.839 326.31 Q 199.223 326.31 203.922 331.451 Q 208.621 336.592 208.621 344.774 L 208.621 349.861 Q 208.621 354.504 207.239 357.766 Q 205.857 361.028 202.429 362.465 Q 208.4 363.129 212.104 367.33 Q 215.808 371.532 215.808 378.497 L 215.808 401.938 Q 215.808 404.038 214.868 404.978 Q 213.928 405.918 211.828 405.918 L 194.69 405.918 Q 192.589 405.918 191.649 404.978 Q 190.709 404.038 190.709 401.938 L 190.709 385.021 Q 190.709 382.588 189.769 381.427 Q 188.83 380.266 186.508 380.266 L 171.028 380.266 L 171.028 401.938 Q 171.028 404.038 170.088 404.978 Q 169.149 405.918 167.048 405.918 Z M 281.597 405.918 L 228.967 405.918 Q 226.866 405.918 225.926 404.978 Q 224.987 404.038 224.987 401.938 L 224.987 382.92 Q 224.987 376.507 226.258 372.361 Q 227.53 368.215 229.852 365.561 Q 232.173 362.907 235.38 361.359 Q 238.586 359.812 242.346 358.706 L 257.162 354.062 Q 258.931 353.62 259.539 352.735 Q 260.147 351.851 260.147 350.082 Q 260.147 348.423 259.484 347.815 Q 258.82 347.207 257.162 347.207 L 233.169 347.207 Q 231.068 347.207 230.128 346.267 Q 229.188 345.327 229.188 343.227 L 229.188 330.29 Q 229.188 328.189 230.128 327.25 Q 231.068 326.31 233.169 326.31 L 265.786 326.31 Q 275.184 326.31 280.215 331.009 Q 285.246 335.708 285.246 344.664 L 285.246 355.057 Q 285.246 363.35 280.602 367.772 Q 275.958 372.195 267.997 374.628 L 252.96 379.382 Q 251.302 379.824 250.693 380.377 Q 250.085 380.93 250.085 382.699 L 250.085 385.021 L 281.597 385.021 Q 283.698 385.021 284.638 385.961 Q 285.577 386.9 285.577 389.001 L 285.577 401.938 Q 285.577 404.038 284.638 404.978 Q 283.698 405.918 281.597 405.918 Z M 319.296 405.918 L 302.821 405.918 Q 300.721 405.918 299.781 404.978 Q 298.841 404.038 298.841 401.938 L 298.841 330.29 Q 298.841 328.189 299.781 327.25 Q 300.721 326.31 302.821 326.31 L 320.623 326.31 Q 322.392 326.31 323.553 327.084 Q 324.714 327.858 325.709 329.627 L 335.66 347.649 Q 336.213 348.644 336.6 349.087 Q 336.987 349.529 337.65 349.529 L 338.645 349.529 Q 339.309 349.529 339.696 349.087 Q 340.083 348.644 340.635 347.649 L 350.476 329.627 Q 351.471 327.858 352.632 327.084 Q 353.793 326.31 355.562 326.31 L 373.474 326.31 Q 375.575 326.31 376.514 327.25 Q 377.454 328.189 377.454 330.29 L 377.454 401.938 Q 377.454 404.038 376.514 404.978 Q 375.575 405.918 373.474 405.918 L 356.446 405.918 Q 354.346 405.918 353.406 404.978 Q 352.466 404.038 352.466 401.938 L 352.466 363.018 L 345.943 375.07 Q 344.948 376.949 343.565 377.779 Q 342.183 378.608 340.083 378.608 L 335.66 378.608 Q 333.559 378.608 332.177 377.779 Q 330.795 376.949 329.8 375.07 L 323.276 363.018 L 323.276 401.938 Q 323.276 404.038 322.337 404.978 Q 321.397 405.918 319.296 405.918 Z" transform="matrix(1.18, 0, 0, 1.175761, -4.621856, -3.622841)" style="fill: rgb(255, 255, 255);"/>
</svg>